<?xml version="1.0" encoding="UTF-8"?>
<svg id="Layer_1" data-name="Layer 1" xmlns="http://www.w3.org/2000/svg" viewBox="0 0 512 511.93">
  <defs>
    <style>
      .cls-1 {
        fill: #8e92c8;
      }
    </style>
  </defs>
  <path class="cls-1" d="M512,4.65l-5.03-4.54-1.99-.09c-28.68,10.78-56.95,22.87-86.26,31.91-106.37,32.79-220.14,32.72-326.47-.25C63.19,22.68,35.24,10.53,6.73.03,4.1-.41-.39,4.18.09,6.67c10.58,28.46,22.66,56.47,31.66,85.51,29.11,93.89,32.62,193.7,10.31,289.5C32.17,424.14,15.77,464.42.09,504.91c-.74,3.1,3.53,4.29,4.63,7.02h2c40.53-16.34,81.31-32.66,124.06-42.53,83.05-19.18,167.95-19.02,250.97.19,42.46,9.82,83.03,25.99,123.25,42.34h7v-7c-80.11-152.66-80.13-345.65,0-498.28v-2ZM387.52,151.92c-.75-2.66-6.22-6-8.81-3.45l-106.79,107.46,106.19,107.41c15.77,3.01,6.61-11.8,6.67-19.16.07-8.48,12.55-12.07,16.02.31,3.84,13.7,10.42,42.65,11.65,56.34.25,2.8.67,7.44-1.12,9.67-1.91,2.37-5.93,2.36-8.71,2.09-19.05-1.83-40.78-10.31-60.19-12.6-8.7-2.86-7-15.13,2.61-15.15,6.61-.02,21.69,7.88,18.56-6.01l-107.62-106.96-107.25,106.36c-3.81,18.39,18.63,1.23,25.07,8.88,5.41,6.42-.27,11.56-6.58,13.45-18.18,5.48-39.41,6.97-57.92,12.03-6.48,1.18-11.01-3.34-9.83-9.83,5.31-18.57,6.52-40.53,12.21-58.7,3.48-11.12,15.21-9.34,15.57.12.29,7.46-8.57,22.44,6.59,19.15l106.36-107.25-106.96-107.62c-13.89-3.13-5.99,11.96-6.01,18.56-.02,9.56-12.24,12.48-15.72.31-3.89-13.59-10.87-44.35-12.02-57.9-.76-9.07,3.5-10.56,11.74-9.82,13.67,1.23,42.64,7.82,56.34,11.65,12.39,3.47,8.79,15.95.31,16.02-7.36.06-22.18-9.1-19.16,6.67l107.41,106.19,107.46-106.79c2.55-2.58-.79-8.06-3.45-8.81-3.81-1.07-11.06,2.73-15.11,2.72-9.45-.01-11.91-12.17-2.08-15.5,18.22-6.16,42.29-7.13,61.14-12.62,8.4-.22,9.09,5.08,8.35,12.21-1.43,13.95-7.3,38.19-10.9,52.31-1.72,6.73-2.87,13.94-12.03,11.04-9.61-3.04-.47-17.3-2.02-22.81Z"/>
</svg>