<?xml version="1.0" encoding="UTF-8"?>
<svg id="Layer_1" data-name="Layer 1" xmlns="http://www.w3.org/2000/svg" viewBox="0 0 512 511.89">
  <defs>
    <style>
      .cls-1 {
        fill: #fff;
      }

      .cls-2 {
        fill: #8e92c8;
      }
    </style>
  </defs>
  <path class="cls-1" d="M507.15,511.89h-2c-40.21-16.34-80.77-32.51-123.22-42.33-83-19.2-167.88-19.36-250.91-.19-42.74,9.87-83.51,26.19-124.03,42.52H0v-7c16.27-40.24,32.45-80.79,42.33-123.22,18.57-79.75,19.25-161.84,2.2-241.91C34.74,93.82,17.65,50.04,0,6.74v-2L5.03.19c18.75,5.17,36.99,13.9,55.47,20.56,97.23,35.04,193.36,45.37,295.79,26.68C408.16,37.97,456.48,19.61,505.13.11c2.03-.93,7,4.49,6.86,5.94-56.27,109.36-73.35,236.93-49.38,357.81,9.75,49.15,26.73,97.17,49.38,141.71l-4.84,6.32Z"/>
  <path class="cls-2" d="M417.87,416.97c-1.99,2.46-6.18,2.46-9.07,2.18-19.85-1.91-42.5-10.74-62.72-13.13-9.07-2.98-7.3-15.76,2.72-15.79,6.89-.02,22.61,8.21,19.34-6.26l-112.15-111.46-111.76,110.83c-3.97,19.16,19.41,1.29,26.13,9.25,5.64,6.69-.28,12.04-6.85,14.02-18.95,5.71-41.06,7.27-60.36,12.54-6.75,1.23-11.47-3.48-10.24-10.24,5.53-19.35,6.8-42.24,12.73-61.17,3.63-11.59,15.85-9.73,16.22.13.3,7.77-8.93,23.38,6.86,19.96l110.83-111.76-111.46-112.15c-14.48-3.26-6.25,12.46-6.26,19.34-.02,9.97-12.75,13.01-16.38.32-4.05-14.16-11.33-46.21-12.52-60.34-.8-9.45,3.64-11,12.24-10.23,14.25,1.28,44.44,8.15,58.71,12.14,12.91,3.62,9.16,16.62.33,16.7-7.67.06-23.11-9.48-19.97,6.95l111.93,110.66,111.98-111.28c2.66-2.69-.82-8.4-3.59-9.18-3.97-1.12-11.53,2.84-15.75,2.84-9.85-.01-12.41-12.68-2.16-16.15,18.99-6.42,44.07-7.43,63.72-13.15,8.75-.23,9.47,5.29,8.71,12.73-1.49,14.53-7.61,39.8-11.36,54.51-1.79,7.02-2.99,14.53-12.54,11.51-10.01-3.16-.49-18.02-2.11-23.77-.78-2.77-6.48-6.25-9.18-3.59l-111.28,111.98,110.66,111.93c16.43,3.14,6.89-12.3,6.95-19.97.07-8.84,13.08-12.58,16.7.33,4,14.28,10.86,44.45,12.14,58.71.26,2.91.7,7.76-1.17,10.07Z"/>
</svg>