<?xml version="1.0" encoding="UTF-8"?>
<svg id="Layer_1" data-name="Layer 1" xmlns="http://www.w3.org/2000/svg" viewBox="0 0 32 32">
  <defs>
    <style>
      .cls-1 {
        fill: #8e92c8;
      }
    </style>
  </defs>
  <path class="cls-1" d="M32,.29l-.31-.28h-.12c-1.79.67-3.56,1.42-5.39,1.99-6.65,2.05-13.76,2.05-20.4-.02C3.95,1.42,2.2.66.42,0,.26-.03-.02.26,0,.42c.66,1.78,1.42,3.53,1.98,5.34,1.82,5.87,2.04,12.11.64,18.09C2.01,26.51.99,29.03,0,31.56c-.05.19.22.27.29.44h.13c2.53-1.02,5.08-2.04,7.75-2.66,5.19-1.2,10.5-1.19,15.69.01,2.65.61,5.19,1.62,7.7,2.65h.44v-.44c-5.01-9.54-5.01-21.6,0-31.14v-.13ZM24.22,9.49c-.05-.17-.39-.38-.55-.22l-6.67,6.72,6.64,6.71c.99.19.41-.74.42-1.2,0-.53.78-.75,1,.02.24.86.65,2.67.73,3.52.02.17.04.47-.07.6-.12.15-.37.15-.54.13-1.19-.11-2.55-.64-3.76-.79-.54-.18-.44-.95.16-.95.41,0,1.36.49,1.16-.38l-6.73-6.69-6.7,6.65c-.24,1.15,1.16.08,1.57.55.34.4-.02.72-.41.84-1.14.34-2.46.44-3.62.75-.4.07-.69-.21-.61-.61.33-1.16.41-2.53.76-3.67.22-.69.95-.58.97,0,.02.47-.54,1.4.41,1.2l6.65-6.7-6.69-6.73c-.87-.2-.37.75-.38,1.16,0,.6-.76.78-.98.02-.24-.85-.68-2.77-.75-3.62-.05-.57.22-.66.73-.61.85.08,2.67.49,3.52.73.77.22.55,1,.02,1-.46,0-1.39-.57-1.2.42l6.71,6.64,6.72-6.67c.16-.16-.05-.5-.22-.55-.24-.07-.69.17-.94.17-.59,0-.74-.76-.13-.97,1.14-.39,2.64-.45,3.82-.79.52-.01.57.32.52.76-.09.87-.46,2.39-.68,3.27-.11.42-.18.87-.75.69-.6-.19-.03-1.08-.13-1.43Z"/>
</svg>