<?xml version="1.0" encoding="UTF-8"?>
<svg id="Layer_1" data-name="Layer 1" xmlns="http://www.w3.org/2000/svg" viewBox="0 0 32 31.99">
  <defs>
    <style>
      .cls-1 {
        fill: #fff;
      }

      .cls-2 {
        fill: #8e92c8;
      }
    </style>
  </defs>
  <path class="cls-1" d="M31.7,31.99h-.13c-2.51-1.02-5.05-2.03-7.7-2.65-5.19-1.2-10.49-1.21-15.68-.01-2.67.62-5.22,1.64-7.75,2.66h-.44v-.44c1.02-2.51,2.03-5.05,2.65-7.7,1.16-4.98,1.2-10.12.14-15.12C2.17,5.86,1.1,3.13,0,.42v-.13L.31.01c1.17.32,2.31.87,3.47,1.29,6.08,2.19,12.08,2.84,18.49,1.67C25.51,2.37,28.53,1.23,31.57,0c.13-.06.44.28.43.37-3.52,6.83-4.58,14.81-3.09,22.36.61,3.07,1.67,6.07,3.09,8.86l-.3.39Z"/>
  <path class="cls-2" d="M26.12,26.06c-.12.15-.39.15-.57.14-1.24-.12-2.66-.67-3.92-.82-.57-.19-.46-.99.17-.99.43,0,1.41.51,1.21-.39l-7.01-6.97-6.98,6.93c-.25,1.2,1.21.08,1.63.58.35.42-.02.75-.43.88-1.18.36-2.57.45-3.77.78-.42.08-.72-.22-.64-.64.35-1.21.42-2.64.8-3.82.23-.72.99-.61,1.01,0,.02.49-.56,1.46.43,1.25l6.93-6.98-6.97-7.01c-.9-.2-.39.78-.39,1.21,0,.62-.8.81-1.02.02-.25-.89-.71-2.89-.78-3.77-.05-.59.23-.69.76-.64.89.08,2.78.51,3.67.76.81.23.57,1.04.02,1.04-.48,0-1.44-.59-1.25.43l7,6.92,7-6.96c.17-.17-.05-.52-.22-.57-.25-.07-.72.18-.98.18-.62,0-.78-.79-.14-1.01,1.19-.4,2.75-.46,3.98-.82.55-.01.59.33.54.8-.09.91-.48,2.49-.71,3.41-.11.44-.19.91-.78.72-.63-.2-.03-1.13-.13-1.49-.05-.17-.41-.39-.57-.22l-6.96,7,6.92,7c1.03.2.43-.77.43-1.25,0-.55.82-.79,1.04.02.25.89.68,2.78.76,3.67.02.18.04.48-.07.63Z"/>
</svg>